{"title":"Lambert.and.Stamp.2014.LIMITED.BRRiP.XViD.AC3.5.1.ReLeNTLesS","uid":12272624,"size":1518233982,"categoryP":"video","categoryS":"movies","magnet":"?xt=urn:btih:2653c4dc9ba3fcb65fa0d76d55c1ed3e830a1fbd&amp;dn=Lambert.and.Stamp.2014.LIMITED.BRRiP.XViD.AC3.5.1.ReLeNTLesS&amp;tr=udp%3A%2F%2Ftracker.openbittorrent.com%3A80&amp;tr=udp%3A%2F%2Fopen.demonii.com%3A1337&amp;tr=udp%3A%2F%2Ftracker.coppersurfer.tk%3A6969&amp;tr=udp%3A%2F%2Fexodus.desync.com%3A6969","seeders":21,"leechers":3,"uploader":"TvTeam","files":4,"time":1440307542,"description":"------------------------------------------------------------------------\n\n &lt;a href=&quot; https://www.torrenting.com&quot; rel=&quot;nofollow&quot; target=&quot;_NEW&quot;&gt; https://www.torrenting.com&lt;/a&gt;\n\nSign up is OPEN - for time being. Come and have fun\n\n.......................................................................................................................P0STER\n[img]http://i.imgur.com/IPUYugH.png[/img]\n\niMDB: http://www.imdb.com/title/tt3458236/\n\nGeneral\nComplete name               : Lambert.and.Stamp.2014.LIMITED.BRRiP.XViD.AC3.5.1.ReLeNTLesS.avi\nFormat                      : AVI\nFormat/Info                 : Audio Video Interleave\nFile size                   : 1.40 GiB\nDuration                    : 1h 57mn\nOverall bit rate            : 1 701 Kbps\n\nVideo\nID                          : 0\nFormat                      : MPEG-4 Visual\nFormat profile              : Advanced Simple@L5\nFormat settings, BVOP       : 1\nFormat settings, QPel       : No\nFormat settings, GMC        : No warppoints\nFormat settings, Matrix     : Default (H.263)\nMuxing mode                 : Packed bitstream\nCodec ID                    : XVID\nCodec ID/Hint               : XviD\nDuration                    : 1h 57mn\nBit rate                    : 1 501 Kbps\nWidth                       : 720 pixels\nHeight                      : 384 pixels\nDisplay aspect ratio        : 1.85:1\nFrame rate                  : 23.976 fps\nColor space                 : YUV\nChroma subsampling          : 4:2:0\nBit depth                   : 8 bits\nScan type                   : Progressive\nCompression mode            : Lossy\nBits/(Pixel*Frame)          : 0.226\nStream size                 : 1.23 GiB (88%)\nWriting library             : XviD 1.2.1 (UTC 2008-12-04)\n\nAudio\nID                          : 1\nFormat                      : AC-3\nFormat/Info                 : Audio Coding 3\nMode extension              : CM (complete main)\nFormat settings, Endianness : Big\nCodec ID                    : 2000\nDuration                    : 1h 57mn\nBit rate mode               : Constant\nBit rate                    : 192 Kbps\nChannel(s)                  : 6 channels\nChannel positions           : Front: L C R, Side: L R, LFE\nSampling rate               : 48.0 KHz\nCompression mode            : Lossy\nStream size                 : 162 MiB (11%)\nAlignment                   : Aligned on interleaves\nInterleave, duration        : 64 ms (1.53 video frames)\nInterleave, preload duratio : 192 ms\nTitle                       : lambert.and.stamp.2014.limited.ReLeNTLesS.audio.AC3.5.1.English\nSample Included             : Yes\nSource                      : dev0\n\nPL0T\nA documentary that reveals how the unlikely partnership between aspiring filmmakers \nChristopher Stamp and Kit Lambert produced one of the greatest rock bands in history: The Who.\n\nCAST\nDirector: James D. Cooper\nStars: Kit Lambert, Roger Daltrey, Pete Townshend\n\nSCREENS\n[img]http://i.imgur.com/qzdIL6L.png[/img]\n[img]http://i.imgur.com/6K0vNkv.png[/img]\n[img]http://i.imgur.com/jNRDDis.png[/img]\n[img]http://i.imgur.com/kYZr107.png[/img]\n[img]http://i.imgur.com/UZjwls6.png[/img]\n[img]http://i.imgur.com/FJLPB5V.png[/img]\n[img]http://i.imgur.com/LqjwGeG.png[/img]\n[img]http://i.imgur.com/I4J455C.png[/img]\n\nTRAiLER\n\nGREETZ\n\n\nHIVE-CM8, Blackjesus, M0RPH, M00SE, MiLLENiUM,\n\nMANiX, TiTAN, Anonymous, TuX, \n\nACAB, KingStoner, FooKas, 4PlayHD, \n\nGodFather, Cld.... \n\nKeep up the good work guyz","torrent":{"xt":"urn:btih:2653c4dc9ba3fcb65fa0d76d55c1ed3e830a1fbd","amp;dn":"Lambert.and.Stamp.2014.LIMITED.BRRiP.XViD.AC3.5.1.ReLeNTLesS","amp;tr":["udp%3A%2F%2Ftracker.openbittorrent.com%3A80","udp%3A%2F%2Fopen.demonii.com%3A1337","udp%3A%2F%2Ftracker.coppersurfer.tk%3A6969","udp%3A%2F%2Fexodus.desync.com%3A6969"],"infoHash":"2653c4dc9ba3fcb65fa0d76d55c1ed3e830a1fbd","infoHashBuffer":{"type":"Buffer","data":[38,83,196,220,155,163,252,182,95,160,215,109,85,193,237,62,131,10,31,189]},"announce":[],"urlList":[]}}